HIERARCHY
ROOT Hips
{
  OFFSET 2.26061 22.2878 23.7974
  CHANNELS 6 Xposition Yposition Zposition Zrotation Xrotation Yrotation
  JOINT LeftUpLeg
  {
    OFFSET 8.64259 1.95398 -2.38835
    CHANNELS 3 Zrotation Xrotation Yrotation
    JOINT LeftLeg
    {
      OFFSET 43.7702 0 0
      CHANNELS 3 Zrotation Xrotation Yrotation
      JOINT LeftFoot
      {
        OFFSET 40.6238 0 0
        CHANNELS 3 Zrotation Xrotation Yrotation
        JOINT LeftToeBase
        {
          OFFSET 12.7242 0 0
          CHANNELS 3 Zrotation Xrotation Yrotation
          End Site
          {
            OFFSET 0 0 0
          }
        }
      }
    }
  }
  JOINT RightUpLeg
  {
    OFFSET -8.2249 1.95398 -2.59336
    CHANNELS 3 Zrotation Xrotation Yrotation
    JOINT RightLeg
    {
      OFFSET 43.5653 0 0
      CHANNELS 3 Zrotation Xrotation Yrotation
      JOINT RightFoot
      {
        OFFSET 40.6238 0 0
        CHANNELS 3 Zrotation Xrotation Yrotation
        JOINT RightToeBase
        {
          OFFSET 12.7242 0 0
          CHANNELS 3 Zrotation Xrotation Yrotation
          End Site
          {
            OFFSET 0 0 0
          }
        }
      }
    }
  }
  JOINT Spine
  {
    OFFSET 0.165834 0.87714 6.61349
    CHANNELS 3 Zrotation Xrotation Yrotation
    JOINT Spine1
    {
      OFFSET 7.38963 1.71661e-005 0
      CHANNELS 3 Zrotation Xrotation Yrotation
      JOINT Spine2
      {
        OFFSET 11.9445 1.14441e-005 0
        CHANNELS 3 Zrotation Xrotation Yrotation
        JOINT Spine3
        {
          OFFSET 14.7254 4.19617e-005 0
          CHANNELS 3 Zrotation Xrotation Yrotation
          JOINT Spine4
          {
            OFFSET 10.9679 0 0
            CHANNELS 3 Zrotation Xrotation Yrotation
            JOINT RightShoulder
            {
              OFFSET 2.46616 -1.6653 3.69651
              CHANNELS 3 Zrotation Xrotation Yrotation
              JOINT RightArm
              {
                OFFSET 13.0012 0 0
                CHANNELS 3 Zrotation Xrotation Yrotation
                JOINT RightForeArm
                {
                  OFFSET 28.7848 1.52588e-005 0
                  CHANNELS 3 Zrotation Xrotation Yrotation
                  JOINT RightHand
                  {
                    OFFSET 26.5688 1.52588e-005 0
                    CHANNELS 3 Zrotation Xrotation Yrotation
                    End Site
                    {
                      OFFSET 0 0 0
                    }
                  }
                }
              }
            }
            JOINT LeftShoulder
            {
              OFFSET 2.38034 -1.29275 -3.7523
              CHANNELS 3 Zrotation Xrotation Yrotation
              JOINT LeftArm
              {
                OFFSET 16.3182 6.10351e-005 0
                CHANNELS 3 Zrotation Xrotation Yrotation
                JOINT LeftForeArm
                {
                  OFFSET 27.0901 0 0
                  CHANNELS 3 Zrotation Xrotation Yrotation
                  JOINT LeftHand
                  {
                    OFFSET 24.5451 1.52588e-005 0
                    CHANNELS 3 Zrotation Xrotation Yrotation
                    End Site
                    {
                      OFFSET 0 0 0
                    }
                  }
                }
              }
            }
            JOINT Neck
            {
              OFFSET 5.0226 -0.0266342 0
              CHANNELS 3 Zrotation Xrotation Yrotation
              JOINT Head
              {
                OFFSET 6.69363 2.86102e-005 0
                CHANNELS 3 Zrotation Xrotation Yrotation
                End Site
                {
                  OFFSET 0 0 0
                }
              }
            }
          }
        }
      }
    }
  }
}
MOTION
Frames:	17
Frame Time:	0.0416667
-56.0293 47.5778 7.9468 -156.593 -78.9681 -144.931 136.89 81.7016 141.606 -119.376 -7.44196 4.12825 61.6313 18.41 18.9767 46.595 15.1168 7.69207 119.102 65.6777 155.533 -118.685 17.2918 -4.14469 77.1935 -19.643 -9.94684 43.8436 -0.0310061 -11.6371 1.25005 12.2133 -90.745 2.4572 2.206 -1.41792 -9.21276 2.14146 -1.51367 -31.761 2.5301 -0.689083 -11.7483 2.5301 -0.689093 84.6476 -39.0289 -112.976 -3.87437 0.24299 -40.8877 24.4062 3.35384 -48.2063 -18.2719 0.0157726 -5.4914 -109.944 -42.8581 46.2086 25.8166 6.94232 -24.6225 -26.676 -18.083 -53.6132 19.2498 -0.382127 -5.89674 -6.68242 0.585054 4.23344 0.477166 0.309984 -1.05915 
-56.0159 48.6806 7.73176 -172.776 -78.4104 -163.568 161.279 80.3763 114.216 -116.975 -8.29986 4.13554 61.2765 18.4955 18.1829 46.1022 14.2805 5.10553 124.924 66.5562 146.163 -118.035 17.7006 -4.04487 76.805 -18.8491 -9.73402 44.5728 0.0893065 -9.47662 0.792523 12.3815 -90.615 2.11557 1.34453 -1.17164 -9.55526 1.29168 -1.22968 -32.0941 1.63448 -0.713351 -12.0815 1.63449 -0.71335 84.8216 -39.0241 -112.68 -3.12737 -0.135649 -40.6151 23.8634 3.47236 -49.4167 -18.4951 -0.162876 -4.26266 -109.316 -42.8788 47.1366 24.8831 6.57071 -25.2862 -25.4268 -17.3417 -53.5367 17.6658 -0.295116 -5.54965 -6.61799 0.6514 3.98727 -0.0820735 0.412056 -0.511256 
-56.0596 50.0548 7.97661 177.086 -78.0859 -175.753 172.591 77.9968 100.768 -114.712 -8.12198 4.07331 60.6046 17.6957 18.4949 48.0601 15.6752 3.63561 132.41 67.0037 136.492 -117.148 17.7213 -3.78058 78.5773 -18.7808 -8.6936 44.1321 0.118593 -9.2858 0.416852 12.3928 -90.4712 2.0898 0.650128 -0.905451 -9.58132 0.609652 -0.933188 -32.1163 0.892189 -0.668211 -12.1036 0.89219 -0.668206 84.2597 -39.5435 -113.423 -3.45773 -0.301956 -39.6509 24.6107 3.16205 -49.9053 -17.5342 -0.129876 -4.35001 -109.083 -43.3019 47.7097 24.8307 6.60266 -25.023 -26.6125 -17.8217 -54.4371 19.4109 -0.277121 -5.33868 -6.69249 0.768737 4.16326 -0.504304 0.516183 -0.760576 
-56.0963 51.9928 8.09864 171.566 -78.1716 176.963 -179.751 75.5815 91.7607 -111.842 -8.23494 4.07064 61.2065 17.7856 17.6023 46.2589 14.2865 4.28028 139.66 66.9934 128.036 -115.08 18.0061 -3.51869 79.2037 -18.4191 -7.78082 44.1978 0.113615 -9.32632 0.183819 12.291 -90.3404 2.29208 0.234853 -0.660051 -9.37902 0.205574 -0.669757 -31.9133 0.422363 -0.558962 -11.9007 0.422366 -0.558956 84.0379 -40.1151 -113.558 -3.70423 -0.793096 -38.661 24.9183 2.91214 -51.0367 -19.1112 -0.117398 -4.61801 -109.321 -43.4979 47.4695 24.6169 6.84055 -24.2846 -26.5359 -17.8643 -54.7413 17.1705 -0.443226 -6.4205 -7.66172 0.766109 4.07127 -0.173787 0.561198 -0.473722 
-56.1761 54.1719 8.38772 169.655 -78.9538 173.584 -175.75 73.2958 87.6136 -108.667 -8.05949 4.0419 60.9154 16.7265 17.2134 47.8355 15.3428 2.78001 146.179 66.5847 121.115 -112.652 17.1966 -3.2483 79.9593 -17.9976 -7.51443 43.6291 0.137334 -9.23881 0.0694028 12.1529 -90.2113 2.56806 0.0560518 -0.411715 -9.10297 0.0378978 -0.413792 -31.6377 0.177197 -0.375845 -11.625 0.177207 -0.375828 84.4243 -40.5736 -112.722 -3.91829 -1.31853 -38.7266 26.4536 3.76125 -51.7127 -18.6383 -0.0336272 -5.16127 -109.062 -43.5191 47.8587 24.3838 6.90915 -24.3736 -26.4157 -17.5792 -55.1249 16.9745 -0.458042 -6.52556 -7.3058 0.726299 3.86416 -1.03826 0.523472 -0.442043 
-56.3279 56.5723 9.12809 171.551 -80.9185 174.178 -172.699 71.4224 85.0411 -105.507 -7.81776 3.95022 61.9445 16.6025 16.962 47.6964 15.2021 2.62096 151.94 66.3447 116.073 -109.799 17.4189 -2.93198 80.7046 -17.6889 -7.25642 43.3968 0.207388 -8.25244 0.0268682 11.8499 -90.0439 3.17407 0.0363396 -0.0857234 -8.49689 0.0325409 -0.0872443 -31.032 0.0604233 -0.0708495 -11.0194 0.0604279 -0.0708404 84.3572 -40.4291 -112.894 -2.87858 -1.93774 -37.6471 26.3705 3.84018 -52.8191 -18.4645 -0.043496 -5.06992 -108.807 -43.5823 48.265 23.1378 6.9664 -23.684 -27.0149 -17.7124 -56.2745 18.5345 -0.361179 -5.83385 -7.51008 0.837366 3.83299 -1.61416 0.644621 -0.491057 
-56.5352 59.2957 9.98077 -176.048 -83.5966 -174.402 -170.211 69.7472 84.1292 -102.121 -7.46829 3.8162 63.8196 16.5767 15.8283 46.1528 14.1297 3.80654 157.634 66.201 112.292 -106.334 16.7499 -2.65115 80.6973 -17.0502 -7.00328 42.994 0.246595 -7.74075 0.148852 11.4461 -89.8901 3.98106 0.34172 0.214609 -7.68985 0.350835 0.199352 -30.2251 0.261421 0.307388 -10.2125 0.261424 0.307394 84.5047 -41.1083 -112.373 -1.80842 -2.44327 -36.7631 25.4066 3.32815 -54.4616 -18.028 -0.0453656 -5.01023 -108.777 -44.0098 48.5375 22.1192 7.186 -23.2104 -27.6572 -17.7942 -57.4597 18.9429 -0.39757 -5.99889 -7.65934 0.975117 3.67526 -2.56263 0.800407 -0.307349 
-56.8694 62.1535 11.0566 -130.148 -84.8772 -129.39 -166.527 68.3664 83.5917 -98.5483 -7.41154 3.57199 65.4393 16.178 14.6401 44.4185 12.8709 5.2328 164.173 66.1337 109.175 -102.402 15.7251 -2.50521 81.033 -16.5724 -6.76808 41.9896 0.285392 -7.32943 0.467232 10.9724 -89.699 4.92644 1.05755 0.572076 -6.74419 1.08169 0.524959 -29.2806 0.836727 0.863459 -9.268 0.836731 0.863468 84.8773 -41.6232 -111.554 0.145669 -2.89038 -35.479 23.6075 1.79538 -56.2624 -18.0302 -0.140099 -4.33395 -109.715 -44.5289 47.4575 21.3105 7.33718 -21.564 -27.4504 -17.2157 -58.9012 19.541 -0.336771 -5.64356 -8.61527 0.445993 3.69556 -2.72392 0.300538 -0.499202 
-57.1899 65.0933 12.1052 -101.411 -83.9932 -100.355 -165.495 66.5743 85.6007 -94.8338 -6.49001 3.17981 66.6715 15.5714 13.9696 44.025 12.4317 4.35059 167.576 64.502 107.949 -98.0436 14.9971 -2.342 80.6748 -15.7322 -6.48207 41.5013 0.312302 -6.9042 0.684088 10.5779 -89.6861 5.71371 1.49803 0.57795 -5.95648 1.52202 0.511449 -28.4958 1.25508 1.0015 -8.48316 1.25506 1.00147 85.0536 -42.201 -111.042 1.73815 -3.76444 -33.7207 21.6775 0.401556 -58.2313 -19.0478 -0.252214 -3.72784 -109.545 -44.9443 47.9247 19.0027 7.35481 -20.5898 -27.1208 -16.5967 -60.357 20.2841 -0.271357 -5.27261 -8.98358 0.388262 4.14481 -3.76121 0.242751 -0.934595 
-57.2037 68.0168 13.3396 -86.8747 -84.3684 -85.4252 -169.498 63.9816 88.4132 -90.5531 -7.01758 2.95718 67.3159 15.7433 13.3287 42.565 11.2742 5.00693 169.514 61.8914 105.761 -93.6972 13.897 -2.09241 81.2019 -14.8477 -6.06885 40.4832 0.333699 -6.62296 0.674354 10.2526 -89.771 6.366 1.44419 0.400691 -5.30419 1.46043 0.33672 -27.844 1.25699 0.816251 -7.83136 1.25699 0.816254 85.4935 -42.7792 -110.104 3.10323 -5.2282 -32.0797 21.6261 0.0781222 -60.2055 -19.8001 -0.146392 -4.53595 -109.445 -45.5195 48.3723 16.5708 7.64233 -19.3792 -26.3738 -15.7241 -61.93 20.5402 -0.0949478 -4.39818 -9.45598 0.516627 4.43577 -4.49897 0.385597 -1.0141 
-57.2774 71.009 14.4936 -73.8508 -84.2721 -72.4234 -171.187 61.1721 89.6605 -85.9813 -7.18215 2.68855 67.5525 14.8005 11.726 41.9428 10.7908 5.49827 171.759 59.1991 103.323 -88.9909 12.857 -1.92117 80.9887 -13.6772 -5.6412 39.9538 0.3536 -6.13682 0.659871 9.95691 -89.8001 6.95789 1.40366 0.334284 -4.71233 1.41701 0.272163 -27.2521 1.2383 0.740747 -7.23948 1.23829 0.74073 85.9636 -43.1956 -109.187 5.21487 -6.26869 -30.2808 19.5207 -0.700459 -61.3984 -20.6108 -0.216454 -4.17167 -109.169 -45.8483 48.9393 13.9669 8.12692 -18.4199 -26.6517 -15.4228 -63.2573 21.0591 -0.0186114 -4.02654 -9.9048 0.580832 4.43218 -5.21298 0.473392 -0.79451 
-57.4492 73.9163 15.549 -63.4113 -84.2094 -62.1968 -171.294 58.2806 90.1227 -81.3084 -6.48038 2.23869 67.4238 13.4941 10.6384 42.1787 10.8837 4.32754 173.176 56.3146 101.244 -84.2357 11.6497 -1.74125 80.6778 -12.6469 -5.27067 39 0.368642 -5.69622 0.60282 9.66088 -89.7876 7.55006 1.29575 0.353949 -4.12029 1.31009 0.29657 -26.6592 1.12947 0.727064 -6.64656 1.12947 0.727054 86.375 -43.9002 -108.272 5.74886 -8.29552 -28.8019 20.6039 -0.84161 -62.2206 -22.1407 -0.179606 -4.57939 -108.71 -46.0483 49.6995 11.2702 9.12341 -17.1968 -27.8561 -15.6314 -64.4795 21.7689 -0.0733001 -4.28678 -10.7154 0.651548 4.08413 -6.14724 0.583711 -0.572977 
-57.6406 76.5959 16.5926 -57.6551 -83.8047 -56.6296 -172.012 54.9889 90.9871 -76.6514 -4.72711 1.8553 68.0794 13.1032 9.52036 40.4402 9.55938 6.30389 174.69 53.3565 99.6712 -79.5068 10.7209 -1.68188 80.1458 -11.6735 -4.93888 38.0421 0.373388 -5.40496 0.578227 9.3821 -89.8187 8.10813 1.23372 0.287269 -3.56225 1.24518 0.232676 -26.101 1.09035 0.644824 -6.08836 1.09036 0.644819 86.5279 -42.9492 -108.346 8.54911 -9.70426 -26.0586 18.9478 -1.23964 -63.6691 -22.2838 -0.337264 -3.69653 -108.044 -46.7328 50.9995 8.6227 10.2412 -16.6584 -28.1078 -15.2882 -65.3034 23.846 0.0984577 -3.55839 -11.0292 0.751164 4.84389 -7.5158 0.707446 -1.1276 
-57.6676 79.0455 17.595 -51.3215 -84.0279 -50.5386 -172.241 51.7475 90.932 -72.0232 -4.00031 1.52326 68.2661 12.8619 9.55397 39.0415 8.28453 5.10922 175.972 50.4166 98.149 -74.9758 10.5589 -1.76175 79.1115 -10.5026 -4.55316 37.7792 0.376917 -5.25073 0.506869 9.09413 -89.82 8.68435 1.09119 0.284612 -2.98616 1.10268 0.236812 -25.5241 0.955047 0.599917 -5.5114 0.955046 0.59991 86.863 -43.6508 -107.561 9.14803 -11.5346 -24.198 19.8667 -1.43325 -65.0918 -23.4617 -0.355886 -3.76099 -107.86 -47.195 51.4907 6.23536 11.2404 -15.1058 -28.7133 -15.199 -66.019 24.9696 0.104074 -3.56976 -12.5822 0.762613 4.46726 -8.13974 0.788234 -0.989446 
-57.7192 81.4429 18.462 -48.9357 -84.0661 -48.4071 -172.049 48.3758 91.1703 -67.2945 -2.92268 1.05172 68.2338 11.7912 8.29633 38.5048 7.8032 4.4922 177.052 47.0618 96.9104 -70.0073 9.79676 -1.90291 78.3191 -9.73661 -4.30159 37.0121 0.377063 -4.94647 0.483973 8.86667 -89.8163 9.13926 1.04747 0.291312 -2.53126 1.05921 0.243101 -25.0689 0.912048 0.590947 -5.05622 0.912038 0.590929 87.4537 -44.4171 -106.352 9.4089 -12.7338 -23.4466 19.7524 -1.9193 -65.2349 -23.3837 -0.417451 -3.41909 -107.937 -47.4256 51.4947 3.98346 11.7274 -13.3378 -28.0145 -14.7366 -66.2747 25.1666 0.121745 -3.50621 -13.6541 0.703236 4.10468 -8.75785 0.765146 -0.747233 
-57.746 83.7463 19.2229 -49.7841 -84.0805 -49.5034 -171.613 44.7959 91.4556 -62.427 -1.55367 0.470823 67.8162 10.5733 7.23554 38.1681 7.49174 3.70767 177.745 43.6965 95.9742 -65.0753 8.94547 -2.09787 76.9669 -8.67205 -3.94662 36.3254 0.369905 -4.1094 0.461683 8.66986 -89.8122 9.53295 1.00521 0.296767 -2.13761 1.01725 0.251173 -24.675 0.869856 0.584166 -4.66232 0.869865 0.584166 87.8416 -44.8194 -105.601 9.95318 -14.2278 -21.9483 19.8836 -2.18237 -65.9304 -23.559 -0.361542 -3.73924 -107.604 -47.8627 52.1816 1.80293 12.1792 -11.8389 -27.5763 -14.513 -66.6655 24.2161 0.280546 -2.79479 -15.0252 0.684663 4.1657 -8.91871 0.802826 -0.839533 
-57.6896 85.9098 19.9808 -49.2802 -84.1008 -49.1575 -170.993 41.2378 91.7197 -57.0847 0.769669 -0.290377 66.8473 9.57437 8.30224 37.5042 6.89654 1.90075 177.986 40.164 95.1222 -59.8092 7.36392 -2.19782 76.3826 -8.09132 -3.73867 34.8466 0.346986 -3.85974 0.406988 8.48647 -89.818 9.89976 0.893842 0.288786 -1.7709 0.905691 0.249157 -24.3077 0.765724 0.544097 -4.29508 0.765722 0.54407 86.4441 -45.5464 -107.617 11.0741 -14.6232 -18.4399 19.075 -2.38931 -67.7732 -23.7429 -0.435093 -3.37731 -106.479 -48.4761 54.0715 -0.494822 12.6225 -11.0516 -26.9374 -14.2034 -66.6343 24.3035 0.260313 -2.8902 -15.7083 0.93128 4.22808 -9.63972 1.08057 -0.755155 
